<svg width="425" height="344" viewBox="0 0 425 344" fill="none" xmlns="http://www.w3.org/2000/svg">
<path d="M387.696 337.762H37.5525C31.9939 337.762 26.6629 335.067 22.7324 330.269C18.8019 325.472 16.5937 318.965 16.5938 312.18V18.9091C16.5938 13.9605 18.2043 9.21463 21.0711 5.71544C23.9379 2.21625 27.8261 0.250427 31.8803 0.250427H394.208C396.105 0.250427 397.984 0.706528 399.737 1.59269C401.489 2.47885 403.082 3.77772 404.424 5.41513C405.765 7.05254 406.829 8.99644 407.555 11.1358C408.281 13.2752 408.655 15.5682 408.655 17.8838V312.2C408.65 318.981 406.44 325.483 402.51 330.276C398.58 335.07 393.252 337.762 387.696 337.762Z" fill="#E0E0E0"/>
<path d="M387.695 337.762L388.527 337.691L389.583 337.62C389.999 337.62 390.482 337.468 391.03 337.376L391.912 337.214L392.869 336.909L393.916 336.574L395.031 336.067C395.867 335.692 396.681 335.247 397.468 334.737C397.892 334.483 398.299 334.138 398.74 333.823L399.406 333.326L400.046 332.737C404.425 328.85 407.374 323.015 408.255 316.494C408.313 316.007 408.371 315.53 408.438 315.043C408.504 314.555 408.488 314.027 408.513 313.55C408.571 312.535 408.579 311.52 408.571 310.505C408.571 308.42 408.571 306.258 408.571 304.018C408.571 299.551 408.571 294.793 408.571 289.745C408.571 249.402 408.571 191.02 408.496 118.882C408.496 100.853 408.496 81.9813 408.496 62.2668C408.496 52.4332 408.496 42.3966 408.496 32.157V20.5334C408.496 19.2441 408.496 17.9244 408.438 16.6555C408.29 14.0562 407.665 11.5308 406.61 9.26584C405.555 7.0009 404.096 5.05434 402.342 3.57C400.564 2.06686 398.526 1.0838 396.387 0.697083C396.12 0.697083 395.854 0.585415 395.555 0.554961H394.723C394.183 0.554961 393.634 0.554961 393.06 0.554961H292.009H37.7929H33.5679C32.8693 0.554961 32.154 0.554961 31.4637 0.554961L30.4324 0.615868C30.0831 0.666626 29.7421 0.737688 29.4011 0.798598C29.0576 0.847957 28.7182 0.932859 28.3865 1.05239C28.0455 1.16406 27.7128 1.25542 27.3801 1.37724C26.7231 1.63912 26.0813 1.95453 25.4589 2.32134C24.2062 3.03577 23.0439 3.96564 22.0074 5.08259C20.9782 6.18019 20.0796 7.44785 19.3376 8.84885C18.591 10.2616 17.9983 11.787 17.5744 13.3866C17.1748 14.995 16.9511 16.6607 16.9091 18.3406C16.8675 20.0258 16.9091 21.7414 16.9091 23.4165V143.135C16.9091 195.04 16.9091 245.108 16.9091 292.8V310.576C16.9091 312.048 16.9507 313.5 17.0338 314.951L17.3 317.103C17.4164 317.814 17.5911 318.504 17.7325 319.215C18.3928 321.99 19.4333 324.609 20.8097 326.961C23.5609 331.654 27.5473 335.055 32.1041 336.595C32.6697 336.757 33.2186 336.99 33.7675 337.092L35.4891 337.407C36.6452 337.488 37.8013 337.579 38.9656 337.549H99.7958H196.464L336.43 337.63L374.471 337.762L336.413 337.813L196.447 337.894H99.7792H38.9074C37.7513 337.894 36.5703 337.833 35.3893 337.752L33.6428 337.427C33.0523 337.325 32.495 337.092 31.9128 336.93C27.2722 335.358 23.2126 331.894 20.4105 327.113C19.0071 324.718 17.9443 322.051 17.2667 319.225C17.1253 318.504 16.9507 317.794 16.8342 317.073L16.5598 314.88C16.4766 313.408 16.41 311.916 16.435 310.454C16.435 304.566 16.435 298.641 16.435 292.679C16.435 244.966 16.435 194.918 16.435 143.013C16.435 117.059 16.435 90.6643 16.435 63.8301V23.4672C16.435 21.7617 16.435 20.0766 16.435 18.3914C16.4793 16.6703 16.7086 14.9638 17.117 13.3156C17.5558 11.6678 18.1651 10.0951 18.9301 8.63566C19.7099 7.18525 20.6472 5.87051 21.7163 4.72728C22.7841 3.57972 23.9797 2.62271 25.2676 1.88482C25.9092 1.49577 26.5703 1.1567 27.247 0.869659C27.588 0.747839 27.9373 0.656475 28.2867 0.544807C28.6266 0.421894 28.9744 0.333609 29.3263 0.280862C29.6839 0.219952 30.0332 0.138744 30.3825 0.0879861L31.4554 0.027071C32.1707 -0.0338388 32.861 0.027071 33.5679 0.027071H37.7929H292.009H393.118C393.667 0.027071 394.216 0.027071 394.781 0.027071L395.613 0.0778323C395.888 0.0778323 396.162 0.169196 396.445 0.219955C398.637 0.613965 400.724 1.62535 402.541 3.17409C404.341 4.69414 405.837 6.68859 406.92 9.00987C408.002 11.3311 408.643 13.9198 408.796 16.5844C408.87 17.9041 408.796 19.1934 408.845 20.4928V32.0859C408.845 42.3188 408.845 52.3554 408.845 62.1957C408.845 81.8899 408.845 100.762 408.845 118.811C408.845 190.949 408.796 249.331 408.779 289.674C408.779 294.716 408.779 299.473 408.779 303.947C408.779 306.19 408.779 308.353 408.779 310.434C408.779 311.449 408.779 312.464 408.721 313.479C408.721 313.987 408.721 314.494 408.638 314.982C408.554 315.469 408.513 315.997 408.454 316.433C407.551 322.999 404.562 328.864 400.138 332.757L399.497 333.346L398.832 333.843C398.383 334.158 398 334.503 397.543 334.767C396.75 335.266 395.933 335.707 395.097 336.087L393.975 336.584L392.918 336.909L391.962 337.204L391.08 337.366C390.599 337.474 390.113 337.552 389.625 337.6L388.569 337.66L387.695 337.762Z" fill="#263238"/>
<path d="M408.247 342.919H20.494C17.8313 342.923 15.1941 342.286 12.7332 341.045C10.2722 339.804 8.03581 337.983 6.15184 335.687C4.26788 333.39 2.7733 330.662 1.75358 327.66C0.733853 324.658 0.208982 321.44 0.208984 318.19V314.342C0.209898 314.212 0.232483 314.084 0.275357 313.965C0.31823 313.847 0.380492 313.74 0.458337 313.651C0.536182 313.563 0.627974 313.495 0.728102 313.451C0.82823 313.408 0.93459 313.39 1.04068 313.398H424.207C424.414 313.398 424.613 313.498 424.76 313.677C424.907 313.856 424.989 314.099 424.989 314.352V322.534C424.987 325.215 424.552 327.869 423.709 330.344C422.867 332.819 421.633 335.067 420.078 336.96C418.523 338.853 416.678 340.354 414.648 341.376C412.618 342.399 410.443 342.923 408.247 342.919Z" fill="#E0E0E0"/>
<path d="M408.247 342.919L408.812 342.868C409.37 342.853 409.925 342.792 410.476 342.686C412.687 342.334 414.812 341.417 416.713 339.995C418.125 338.982 419.401 337.712 420.498 336.229C421.832 334.441 422.896 332.379 423.641 330.138C424.492 327.52 424.904 324.721 424.856 321.905C424.856 320.393 424.856 318.86 424.856 317.235V314.789C424.856 314.373 424.856 313.956 424.631 313.703C424.407 313.449 424.057 313.479 423.708 313.469L329.269 313.55L17.7077 313.632H1.04052C0.952651 313.627 0.864934 313.644 0.7827 313.682C0.705334 313.725 0.636761 313.788 0.582054 313.867C0.527348 313.946 0.487906 314.039 0.466652 314.139C0.448484 314.403 0.448484 314.668 0.466652 314.931V316.657C0.466652 317.804 0.466657 318.941 0.549827 320.078C0.681132 322.336 1.08179 324.559 1.73914 326.676C2.06022 327.72 2.43524 328.737 2.86194 329.722C3.31209 330.748 3.81488 331.738 4.3673 332.686C6.55679 336.295 9.51349 339.103 12.9171 340.808C14.6172 341.636 16.398 342.192 18.215 342.462C20.0198 342.675 21.8662 342.625 23.7042 342.625H139.102L279.168 342.686L373.64 342.838H399.314L373.64 342.889L279.209 342.98L139.102 343.163H56.3815H23.7042C21.8745 343.163 20.0281 343.163 18.1651 342.99C16.3078 342.72 14.4875 342.153 12.7508 341.305C9.25751 339.546 6.22777 336.649 3.99304 332.93C3.43302 332.003 2.92189 331.033 2.46273 330.026C2.03107 329.002 1.64786 327.948 1.31498 326.869C0.64626 324.702 0.237287 322.428 0.10071 320.118C0.0424916 318.961 0.00090181 317.804 0.0175357 316.657V314.931C-0.00584524 314.624 -0.00584524 314.314 0.0175357 314.007C0.0783253 313.743 0.209346 313.511 0.39 313.347C0.570654 313.184 0.790705 313.098 1.01557 313.104H17.6994L329.261 313.185L423.7 313.266H424.224C424.418 313.284 424.6 313.385 424.739 313.55C424.879 313.708 424.97 313.92 424.997 314.149C424.997 314.393 424.997 314.576 424.997 314.789C424.997 315.611 424.997 316.433 424.997 317.235V321.905C425.039 324.744 424.615 327.564 423.75 330.199C422.995 332.446 421.916 334.509 420.564 336.29C417.92 339.811 414.346 342.086 410.467 342.716C409.917 342.818 409.361 342.872 408.804 342.878L408.247 342.919Z" fill="#263238"/>
<path d="M387.114 20.8583H37.0617C34.6502 20.8583 32.6953 23.2445 32.6953 26.1879V292.019C32.6953 294.962 34.6502 297.348 37.0617 297.348H387.114C389.525 297.348 391.48 294.962 391.48 292.019V26.1879C391.48 23.2445 389.525 20.8583 387.114 20.8583Z" fill="#455A64"/>
<path d="M387.123 297.348C387.123 297.348 387.381 297.348 387.871 297.247C388.61 297.081 389.302 296.69 389.884 296.11C390.357 295.631 390.741 295.035 391.011 294.361C391.28 293.687 391.429 292.951 391.448 292.201C391.448 290.408 391.448 288.327 391.448 285.958C391.448 276.497 391.448 262.559 391.448 244.59C391.448 208.674 391.406 156.697 391.373 92.4679C391.373 76.408 391.373 59.6037 391.373 42.0549C391.373 37.6762 391.373 33.25 391.373 28.7766V27.1218C391.39 26.5729 391.373 26.0232 391.323 25.4773C391.2 24.3961 390.794 23.3922 390.167 22.6145C389.537 21.8385 388.721 21.3266 387.838 21.1527C387.385 21.0862 386.929 21.0659 386.474 21.0918H362.272H263.491H37.1454C36.5481 21.0894 35.9574 21.2441 35.4134 21.5455C34.8695 21.8468 34.3851 22.2876 33.9933 22.8378C33.604 23.3874 33.3199 24.0359 33.1616 24.7362C33.0131 25.4521 32.957 26.1919 32.9953 26.929V160.87C32.9953 183.975 32.9953 206.647 32.9953 228.886V290.12C32.8865 291.412 32.994 292.718 33.3113 293.958C33.7158 295.137 34.4703 296.087 35.4238 296.617C35.8951 296.881 36.4031 297.033 36.9209 297.064C37.4365 297.064 37.9937 297.064 38.5343 297.064H130.852H216.925L341.554 297.145L375.437 297.196L341.554 297.247L216.925 297.328H130.852H82.9053H38.4678C37.9189 297.328 37.3949 297.328 36.8044 297.328C36.2302 297.291 35.6663 297.126 35.141 296.841C34.1012 296.253 33.2772 295.215 32.8289 293.927C32.6059 293.284 32.4872 292.595 32.4796 291.897V228.906C32.4796 206.674 32.4796 184.002 32.4796 160.89V90.3767C32.4796 78.4384 32.4796 66.4188 32.4796 54.3181V26.9594C32.4454 26.1704 32.5099 25.3797 32.6709 24.6144C32.848 23.8382 33.1696 23.1225 33.6107 22.5231C34.0421 21.9149 34.5761 21.4277 35.1762 21.0948C35.7762 20.7618 36.4281 20.5911 37.0872 20.5943H263.433H362.213H386.416C386.888 20.5679 387.361 20.5917 387.83 20.6654C388.776 20.863 389.649 21.4167 390.325 22.249C391.002 23.0912 391.439 24.1766 391.572 25.3453C391.626 25.9113 391.643 26.4816 391.622 27.0508V42.0041C391.622 59.5326 391.622 76.337 391.622 92.4172C391.622 156.647 391.572 208.623 391.556 244.54C391.556 262.508 391.556 276.446 391.556 285.907C391.556 288.276 391.556 290.357 391.556 292.151C391.533 292.91 391.379 293.655 391.102 294.336C390.825 295.017 390.433 295.618 389.95 296.1C389.366 296.685 388.667 297.074 387.921 297.227C387.734 297.266 387.545 297.286 387.356 297.287L387.123 297.348Z" fill="#263238"/>
<path d="M173.992 312.819L179.265 323.732H253.427L258.326 312.819H173.992Z" fill="#263238"/>
<path d="M215.543 11.4984C215.543 12.2092 215.37 12.904 215.047 13.4949C214.723 14.0859 214.263 14.5465 213.725 14.8185C213.187 15.0905 212.595 15.1617 212.024 15.023C211.453 14.8844 210.928 14.5421 210.517 14.0395C210.105 13.5369 209.824 12.8966 209.711 12.1995C209.597 11.5024 209.656 10.7798 209.878 10.1231C210.101 9.46649 210.479 8.90524 210.963 8.51036C211.447 8.11548 212.016 7.90472 212.599 7.90472C213.379 7.90472 214.128 8.28334 214.68 8.95728C215.233 9.63123 215.543 10.5453 215.543 11.4984Z" fill="#263238"/>
<path d="M268.282 156.444H156.677C156.011 156.444 155.471 157.103 155.471 157.916V179.011C155.471 179.824 156.011 180.483 156.677 180.483H268.282C268.948 180.483 269.488 179.824 269.488 179.011V157.916C269.488 157.103 268.948 156.444 268.282 156.444Z" fill="#F5F5F5"/>
<path d="M268.389 189.467H156.784C156.118 189.467 155.578 190.126 155.578 190.939V212.034C155.578 212.847 156.118 213.506 156.784 213.506H268.389C269.055 213.506 269.595 212.847 269.595 212.034V190.939C269.595 190.126 269.055 189.467 268.389 189.467Z" fill="#F5F5F5"/>
<path d="M163.28 168.311V165.184H163.928V168.23C163.928 169.468 164.394 170.016 165.209 170.016C166.024 170.016 166.498 169.468 166.498 168.23V165.184H167.13V168.341C167.148 168.663 167.111 168.985 167.022 169.289C166.933 169.592 166.794 169.87 166.613 170.106C166.433 170.341 166.215 170.528 165.972 170.657C165.73 170.785 165.469 170.851 165.205 170.851C164.941 170.851 164.68 170.785 164.437 170.657C164.195 170.528 163.977 170.341 163.796 170.106C163.616 169.87 163.477 169.592 163.388 169.289C163.299 168.985 163.262 168.663 163.28 168.341V168.311Z" fill="#263238"/>
<path d="M167.938 170.26L168.195 169.651C168.557 169.937 168.979 170.088 169.41 170.087C169.983 170.087 170.241 169.874 170.241 169.519C170.241 168.575 168.062 169.397 168.062 167.722C168.062 166.971 168.619 166.463 169.501 166.463C169.939 166.455 170.372 166.584 170.757 166.839L170.491 167.438C170.191 167.214 169.844 167.101 169.493 167.113C168.952 167.113 168.661 167.357 168.661 167.692C168.661 168.707 170.84 167.874 170.84 169.509C170.84 170.27 170.266 170.747 169.351 170.747C168.851 170.762 168.358 170.592 167.938 170.26Z" fill="#263238"/>
<path d="M174.731 168.849H171.936C171.974 169.212 172.125 169.543 172.357 169.773C172.589 170.004 172.885 170.116 173.184 170.087C173.369 170.095 173.553 170.053 173.724 169.965C173.895 169.878 174.048 169.746 174.174 169.58L174.523 170.067C174.268 170.381 173.944 170.598 173.59 170.693C173.236 170.787 172.867 170.755 172.528 170.599C172.188 170.444 171.893 170.172 171.678 169.816C171.462 169.461 171.335 169.037 171.313 168.595C171.301 168.313 171.337 168.031 171.42 167.767C171.503 167.504 171.629 167.264 171.792 167.063C171.955 166.862 172.15 166.706 172.366 166.602C172.581 166.499 172.811 166.452 173.043 166.463C173.27 166.463 173.496 166.519 173.705 166.629C173.914 166.74 174.103 166.901 174.259 167.104C174.415 167.307 174.535 167.546 174.612 167.808C174.689 168.07 174.721 168.348 174.706 168.626C174.718 168.699 174.727 168.774 174.731 168.849ZM171.936 168.311H174.14C174.116 167.974 173.99 167.661 173.786 167.433C173.582 167.204 173.315 167.078 173.038 167.078C172.762 167.078 172.495 167.204 172.291 167.433C172.087 167.661 171.96 167.974 171.936 168.311Z" fill="#263238"/>
<path d="M177.461 166.463V167.214H177.361C177.21 167.204 177.058 167.234 176.917 167.303C176.777 167.373 176.65 167.479 176.547 167.615C176.443 167.75 176.366 167.912 176.32 168.089C176.274 168.265 176.26 168.452 176.28 168.636V170.737H175.656V166.524H176.255V167.235C176.378 166.983 176.556 166.778 176.769 166.642C176.982 166.506 177.221 166.444 177.461 166.463Z" fill="#263238"/>
<path d="M181.519 168.28V170.707H180.895V168.372C180.895 167.55 180.554 167.143 179.963 167.143C179.813 167.128 179.661 167.155 179.52 167.22C179.379 167.285 179.251 167.389 179.147 167.522C179.043 167.655 178.964 167.815 178.917 167.99C178.869 168.166 178.855 168.351 178.874 168.534V170.707H178.25V166.494H178.849V167.133C178.996 166.908 179.185 166.729 179.401 166.613C179.617 166.496 179.853 166.445 180.088 166.463C180.285 166.443 180.483 166.477 180.668 166.563C180.853 166.648 181.02 166.783 181.157 166.957C181.294 167.131 181.398 167.34 181.46 167.569C181.523 167.798 181.543 168.041 181.519 168.28Z" fill="#263238"/>
<path d="M185.385 168.169V170.707H184.794V170.148C184.662 170.355 184.489 170.519 184.291 170.623C184.094 170.728 183.878 170.771 183.663 170.747C182.89 170.747 182.391 170.24 182.391 169.509C182.391 168.778 182.748 168.28 183.78 168.28H184.761V168.128C184.761 167.489 184.462 167.113 183.838 167.113C183.443 167.111 183.059 167.272 182.748 167.57L182.49 167.001C182.901 166.631 183.402 166.442 183.913 166.463C184.844 166.463 185.385 167.011 185.385 168.169ZM184.761 169.417V168.829H183.805C183.189 168.829 182.973 169.123 182.973 169.478C182.973 169.834 183.264 170.158 183.738 170.158C183.951 170.189 184.167 170.133 184.352 169.999C184.537 169.865 184.68 169.661 184.761 169.417Z" fill="#263238"/>
<path d="M192.265 168.28V170.707H191.641V168.372C191.641 167.549 191.316 167.143 190.751 167.143C190.604 167.136 190.458 167.167 190.323 167.236C190.187 167.305 190.066 167.41 189.967 167.543C189.869 167.676 189.796 167.833 189.753 168.005C189.71 168.176 189.699 168.357 189.72 168.534V170.707H189.096V168.372C189.096 167.549 188.771 167.143 188.206 167.143C188.059 167.136 187.913 167.167 187.778 167.236C187.642 167.305 187.521 167.41 187.422 167.543C187.324 167.676 187.251 167.833 187.208 168.005C187.165 168.176 187.154 168.357 187.175 168.534V170.707H186.551V166.494H187.15V167.123C187.288 166.902 187.469 166.726 187.676 166.611C187.884 166.495 188.111 166.445 188.339 166.463C188.576 166.443 188.814 166.505 189.024 166.641C189.234 166.778 189.409 166.983 189.528 167.235C189.681 166.983 189.882 166.78 190.114 166.646C190.347 166.511 190.602 166.448 190.859 166.463C191.055 166.444 191.252 166.479 191.435 166.565C191.618 166.651 191.783 166.787 191.918 166.961C192.053 167.135 192.154 167.344 192.214 167.573C192.274 167.801 192.291 168.043 192.265 168.28Z" fill="#263238"/>
<path d="M196.54 168.849H193.745C193.785 169.21 193.936 169.54 194.168 169.77C194.399 170 194.695 170.114 194.993 170.087C195.179 170.094 195.364 170.052 195.536 169.965C195.708 169.877 195.863 169.746 195.991 169.58L196.332 170.067C196.076 170.381 195.752 170.598 195.398 170.693C195.044 170.787 194.675 170.755 194.336 170.599C193.997 170.444 193.702 170.172 193.486 169.816C193.271 169.461 193.144 169.037 193.121 168.595C193.11 168.313 193.146 168.031 193.229 167.767C193.311 167.504 193.438 167.264 193.601 167.063C193.764 166.862 193.959 166.706 194.174 166.602C194.389 166.499 194.62 166.452 194.851 166.463C195.083 166.456 195.313 166.507 195.527 166.614C195.741 166.721 195.934 166.881 196.095 167.085C196.255 167.288 196.379 167.531 196.459 167.796C196.538 168.061 196.571 168.344 196.556 168.626C196.554 168.7 196.549 168.775 196.54 168.849ZM193.745 168.311H195.957C195.924 167.981 195.793 167.678 195.59 167.458C195.386 167.238 195.123 167.116 194.851 167.116C194.579 167.116 194.317 167.238 194.113 167.458C193.909 167.678 193.778 167.981 193.745 168.311Z" fill="#263238"/>
<path d="M268.573 226.703H156.968C156.302 226.703 155.762 227.362 155.762 228.175V249.27C155.762 250.083 156.302 250.742 156.968 250.742H268.573C269.239 250.742 269.779 250.083 269.779 249.27V228.175C269.779 227.362 269.239 226.703 268.573 226.703Z" fill="#0E3995"/>
<path d="M202.469 236.124H203.758V240.438H205.937V241.687H202.469V236.124Z" fill="white"/>
<path d="M206.146 239.525C206.112 239.036 206.2 238.547 206.398 238.12C206.596 237.694 206.895 237.35 207.256 237.134C207.616 236.918 208.022 236.84 208.419 236.91C208.817 236.98 209.188 237.194 209.484 237.526C209.78 237.857 209.987 238.289 210.078 238.767C210.17 239.244 210.141 239.744 209.996 240.201C209.851 240.658 209.597 241.051 209.266 241.329C208.935 241.607 208.543 241.756 208.142 241.758C207.888 241.783 207.633 241.744 207.393 241.644C207.153 241.543 206.932 241.383 206.744 241.173C206.557 240.963 206.407 240.709 206.304 240.425C206.201 240.141 206.147 239.835 206.146 239.525ZM208.882 239.525C208.895 239.397 208.885 239.267 208.854 239.145C208.823 239.022 208.77 238.908 208.7 238.812C208.63 238.716 208.544 238.639 208.448 238.587C208.351 238.535 208.247 238.508 208.142 238.509C207.921 238.509 207.71 238.616 207.554 238.807C207.398 238.997 207.31 239.255 207.31 239.525C207.31 239.794 207.398 240.052 207.554 240.242C207.71 240.433 207.921 240.54 208.142 240.54C208.247 240.541 208.351 240.514 208.448 240.462C208.544 240.41 208.63 240.333 208.7 240.237C208.77 240.141 208.823 240.028 208.854 239.905C208.885 239.782 208.895 239.652 208.882 239.525Z" fill="white"/>
<path d="M214.496 237.372V240.895C214.496 242.529 213.739 243.291 212.425 243.291C211.81 243.323 211.202 243.128 210.679 242.732L211.128 241.717C211.476 242.017 211.891 242.177 212.317 242.174C212.982 242.174 213.257 241.809 213.257 241.159V241.017C213.124 241.19 212.961 241.326 212.779 241.414C212.598 241.502 212.403 241.539 212.209 241.524C211.757 241.524 211.323 241.305 211.003 240.915C210.684 240.525 210.504 239.995 210.504 239.443C210.504 238.891 210.684 238.362 211.003 237.972C211.323 237.582 211.757 237.362 212.209 237.362C212.42 237.341 212.631 237.385 212.824 237.49C213.018 237.594 213.186 237.756 213.315 237.961V237.433L214.496 237.372ZM213.273 239.403C213.274 239.283 213.254 239.164 213.215 239.054C213.176 238.944 213.118 238.845 213.047 238.763C212.975 238.681 212.89 238.618 212.797 238.578C212.705 238.538 212.606 238.521 212.508 238.53C212.407 238.516 212.305 238.529 212.209 238.567C212.112 238.605 212.023 238.668 211.947 238.751C211.872 238.834 211.811 238.935 211.77 239.048C211.729 239.161 211.707 239.284 211.707 239.408C211.707 239.532 211.729 239.654 211.77 239.768C211.811 239.881 211.872 239.982 211.947 240.065C212.023 240.148 212.112 240.21 212.209 240.248C212.305 240.286 212.407 240.299 212.508 240.286C212.609 240.295 212.71 240.277 212.805 240.235C212.9 240.192 212.987 240.126 213.059 240.039C213.132 239.953 213.188 239.849 213.225 239.734C213.262 239.619 213.278 239.496 213.273 239.372V239.403Z" fill="white"/>
<path d="M217.281 236.124H218.57V241.687H217.281V236.124Z" fill="white"/>
<path d="M223.146 239.22V241.687H221.907V239.464C221.907 238.845 221.682 238.581 221.325 238.581C220.967 238.581 220.626 238.885 220.626 239.596V241.687H219.387V237.373H220.609V237.84C220.755 237.661 220.929 237.522 221.121 237.429C221.313 237.337 221.518 237.293 221.724 237.301C221.926 237.292 222.127 237.336 222.314 237.432C222.5 237.527 222.667 237.672 222.803 237.855C222.938 238.038 223.039 238.255 223.099 238.491C223.158 238.727 223.174 238.976 223.146 239.22Z" fill="white"/>
<path d="M164.46 201.628C164.46 202.042 164.359 202.446 164.171 202.79C163.983 203.134 163.715 203.402 163.402 203.56C163.089 203.719 162.745 203.76 162.412 203.679C162.08 203.599 161.775 203.4 161.535 203.107C161.295 202.815 161.132 202.442 161.066 202.036C161 201.631 161.034 201.21 161.164 200.828C161.293 200.446 161.513 200.119 161.795 199.89C162.076 199.66 162.408 199.537 162.746 199.537C163.201 199.537 163.637 199.758 163.958 200.15C164.279 200.542 164.46 201.074 164.46 201.628Z" fill="#263238"/>
<path d="M169.876 201.628C169.876 202.042 169.775 202.446 169.587 202.79C169.399 203.134 169.131 203.402 168.818 203.56C168.505 203.719 168.161 203.76 167.828 203.679C167.496 203.599 167.191 203.4 166.951 203.107C166.711 202.815 166.548 202.442 166.482 202.036C166.416 201.631 166.45 201.21 166.58 200.828C166.709 200.446 166.929 200.119 167.211 199.89C167.492 199.66 167.824 199.537 168.163 199.537C168.617 199.537 169.053 199.758 169.374 200.15C169.695 200.542 169.876 201.074 169.876 201.628Z" fill="#263238"/>
<path d="M175.239 201.628C175.239 202.042 175.139 202.446 174.95 202.79C174.762 203.134 174.495 203.402 174.181 203.56C173.868 203.719 173.524 203.76 173.192 203.679C172.859 203.599 172.554 203.4 172.314 203.107C172.075 202.815 171.912 202.442 171.845 202.036C171.779 201.631 171.813 201.21 171.943 200.828C172.073 200.446 172.292 200.119 172.574 199.89C172.856 199.66 173.187 199.537 173.526 199.537C173.98 199.537 174.416 199.758 174.737 200.15C175.059 200.542 175.239 201.074 175.239 201.628Z" fill="#263238"/>
<path d="M180.628 201.628C180.628 202.042 180.527 202.446 180.339 202.79C180.151 203.134 179.883 203.402 179.57 203.56C179.257 203.719 178.913 203.76 178.58 203.679C178.248 203.599 177.943 203.4 177.703 203.107C177.463 202.815 177.3 202.442 177.234 202.036C177.168 201.631 177.202 201.21 177.332 200.828C177.461 200.446 177.681 200.119 177.963 199.89C178.244 199.66 178.576 199.537 178.914 199.537C179.369 199.537 179.805 199.758 180.126 200.15C180.447 200.542 180.628 201.074 180.628 201.628Z" fill="#263238"/>
<path d="M186.027 201.628C186.029 202.044 185.929 202.452 185.741 202.799C185.553 203.146 185.285 203.416 184.97 203.577C184.656 203.738 184.309 203.781 183.975 203.701C183.64 203.621 183.333 203.422 183.091 203.128C182.85 202.835 182.685 202.46 182.618 202.052C182.551 201.644 182.584 201.221 182.714 200.837C182.844 200.452 183.065 200.123 183.348 199.892C183.632 199.661 183.965 199.537 184.306 199.537C184.761 199.537 185.197 199.757 185.52 200.149C185.843 200.541 186.025 201.073 186.027 201.628Z" fill="#263238"/>
<path d="M191.416 201.628C191.417 202.045 191.318 202.453 191.129 202.8C190.941 203.147 190.672 203.418 190.357 203.578C190.042 203.738 189.695 203.781 189.36 203.7C189.026 203.619 188.718 203.419 188.477 203.125C188.236 202.83 188.072 202.455 188.005 202.046C187.939 201.638 187.974 201.214 188.105 200.83C188.237 200.445 188.459 200.117 188.743 199.887C189.027 199.657 189.361 199.535 189.703 199.537C190.157 199.537 190.593 199.758 190.914 200.15C191.235 200.542 191.416 201.074 191.416 201.628Z" fill="#263238"/>
<path d="M196.805 201.628C196.805 202.042 196.705 202.446 196.517 202.79C196.328 203.134 196.061 203.402 195.748 203.56C195.435 203.719 195.09 203.76 194.758 203.679C194.426 203.599 194.12 203.4 193.881 203.107C193.641 202.815 193.478 202.442 193.412 202.036C193.346 201.631 193.38 201.21 193.509 200.828C193.639 200.446 193.859 200.119 194.14 199.89C194.422 199.66 194.753 199.537 195.092 199.537C195.547 199.537 195.982 199.758 196.304 200.15C196.625 200.542 196.805 201.074 196.805 201.628Z" fill="#263238"/>
<path d="M202.194 201.628C202.194 202.042 202.094 202.446 201.905 202.79C201.717 203.134 201.45 203.402 201.137 203.56C200.823 203.719 200.479 203.76 200.147 203.679C199.814 203.599 199.509 203.4 199.269 203.107C199.03 202.815 198.867 202.442 198.8 202.036C198.734 201.631 198.768 201.21 198.898 200.828C199.028 200.446 199.247 200.119 199.529 199.89C199.811 199.66 200.142 199.537 200.481 199.537C200.935 199.537 201.371 199.758 201.692 200.15C202.014 200.542 202.194 201.074 202.194 201.628Z" fill="#263238"/>
<path d="M260.713 200.106H260.264V199.334C260.23 198.674 259.992 198.055 259.597 197.602C259.202 197.15 258.681 196.898 258.139 196.898C257.597 196.898 257.076 197.15 256.681 197.602C256.286 198.055 256.048 198.674 256.014 199.334V200.106H255.374C255.166 200.106 254.967 200.206 254.821 200.385C254.674 200.564 254.592 200.807 254.592 201.06V205.273C254.592 205.526 254.674 205.769 254.821 205.948C254.967 206.127 255.166 206.227 255.374 206.227H260.713C260.92 206.227 261.119 206.127 261.266 205.948C261.413 205.769 261.495 205.526 261.495 205.273V201.06C261.495 200.807 261.413 200.564 261.266 200.385C261.119 200.206 260.92 200.106 260.713 200.106ZM258.867 204.857H257.203L257.619 203.567C257.439 203.462 257.294 203.284 257.207 203.065C257.121 202.845 257.098 202.596 257.142 202.358C257.187 202.121 257.296 201.909 257.452 201.757C257.608 201.605 257.802 201.522 258.002 201.522C258.201 201.522 258.395 201.605 258.551 201.757C258.708 201.909 258.817 202.121 258.861 202.358C258.906 202.596 258.883 202.845 258.796 203.065C258.709 203.284 258.564 203.462 258.384 203.567L258.867 204.857ZM259.632 200.106H256.679V199.334C256.707 198.88 256.875 198.455 257.149 198.145C257.423 197.835 257.782 197.663 258.156 197.663C258.529 197.663 258.889 197.835 259.162 198.145C259.436 198.455 259.604 198.88 259.632 199.334V200.106Z" fill="#E0E0E0"/>
<path d="M241.593 97.4251C244.195 77.6404 233.165 59.0271 216.956 55.851C200.747 52.6749 185.497 66.1389 182.895 85.9235C180.293 105.708 191.324 124.322 207.533 127.498C223.742 130.674 238.991 117.21 241.593 97.4251Z" fill="#FAFAFA"/>
<path d="M241.949 91.6456C241.949 91.6456 241.949 91.4527 241.899 91.067C241.849 90.6812 241.849 90.0518 241.807 89.3412C241.807 88.9656 241.766 88.5392 241.749 88.0722C241.733 87.6053 241.624 87.1078 241.558 86.5596C241.428 85.2936 241.219 84.0413 240.934 82.8137C240.232 79.4213 239.11 76.1795 237.607 73.2001C235.452 68.8101 232.558 65.0276 229.118 62.1019C225.677 59.1763 221.767 57.1738 217.647 56.2265C216.413 55.946 215.166 55.7696 213.912 55.6987C213.28 55.6987 212.64 55.5971 211.991 55.6073L210.037 55.7291C209.704 55.7291 209.38 55.7291 209.047 55.8103L208.066 55.9931C207.409 56.125 206.735 56.2266 206.078 56.389C204.741 56.758 203.424 57.2293 202.136 57.8001C200.818 58.3674 199.534 59.0458 198.293 59.8304C197.669 60.2364 197.071 60.7237 196.455 61.1704C195.831 61.6149 195.233 62.1137 194.667 62.6627C192.262 64.7857 190.156 67.3707 188.429 70.317C186.595 73.3239 185.171 76.6732 184.213 80.2352C182.183 87.6127 182.183 95.5973 184.213 102.975L185.044 105.645L186.042 108.183C186.204 108.606 186.387 109.016 186.591 109.411L187.19 110.609L187.781 111.786L188.463 112.903C189.348 114.373 190.315 115.767 191.357 117.075C192.403 118.32 193.514 119.48 194.684 120.547C195.248 121.097 195.843 121.599 196.463 122.05C197.087 122.496 197.686 122.984 198.301 123.39C199.546 124.173 200.832 124.851 202.152 125.42C203.441 125.991 204.757 126.462 206.094 126.831C206.751 126.994 207.425 127.085 208.082 127.227L209.064 127.41C209.396 127.41 209.721 127.41 210.053 127.491L212.008 127.613C212.657 127.613 213.297 127.542 213.929 127.521C215.185 127.45 216.435 127.274 217.672 126.994C221.792 126.046 225.702 124.043 229.142 121.117C232.583 118.192 235.476 114.41 237.632 110.02C239.133 107.039 240.254 103.798 240.959 100.406C241.244 99.1788 241.453 97.9266 241.583 96.6605C241.649 96.1123 241.733 95.6454 241.774 95.1479C241.816 94.6505 241.816 94.2546 241.832 93.879C241.874 93.1379 241.907 92.5593 241.924 92.1532C241.941 91.7471 241.974 91.5644 241.974 91.5644C241.974 91.5644 241.974 91.7674 241.974 92.1532C241.974 92.539 241.974 93.1684 241.924 93.8891C241.924 94.2647 241.924 94.6911 241.882 95.1581C241.841 95.6251 241.766 96.1733 241.708 96.6808C241.593 97.9527 241.399 99.2118 241.125 100.447C240.457 103.874 239.361 107.154 237.874 110.172C235.719 114.627 232.812 118.47 229.346 121.445C225.88 124.421 221.934 126.461 217.771 127.43C216.522 127.722 215.258 127.905 213.987 127.978C213.339 127.978 212.69 128.09 212.041 128.08L210.062 127.958C209.729 127.958 209.388 127.958 209.055 127.887L208.057 127.704C207.392 127.562 206.718 127.471 206.045 127.308C203.298 126.559 200.642 125.378 198.143 123.796C197.511 123.38 196.904 122.892 196.28 122.446C195.649 121.993 195.046 121.484 194.476 120.923C193.278 119.848 192.141 118.675 191.074 117.41C190.018 116.082 189.038 114.667 188.138 113.177L187.448 112.05L186.841 110.853L186.242 109.644C186.032 109.245 185.846 108.828 185.685 108.396L184.662 105.817C184.396 104.914 184.121 104.01 183.83 103.107C181.773 95.6237 181.773 87.5255 183.83 80.0423C184.802 76.4279 186.249 73.0302 188.113 69.982C189.015 68.4943 189.996 67.0802 191.049 65.7488C192.118 64.4843 193.254 63.3075 194.451 62.2262C195.023 61.6717 195.626 61.1662 196.256 60.7136C196.879 60.2669 197.486 59.7796 198.119 59.3634C200.617 57.7813 203.273 56.6007 206.02 55.8509C206.693 55.6885 207.367 55.5972 208.032 55.455L209.03 55.2723C209.363 55.2215 209.704 55.2215 210.028 55.2012L212.008 55.0794C212.665 55.0794 213.314 55.1505 213.962 55.1809C215.23 55.2552 216.491 55.435 217.738 55.719C221.9 56.6946 225.845 58.7374 229.311 61.7124C232.778 64.6874 235.688 68.5268 237.849 72.9768C239.331 75.9947 240.427 79.2707 241.101 82.6919C241.374 83.9305 241.568 85.1931 241.683 86.4683C241.741 87.0165 241.816 87.4835 241.857 87.991C241.899 88.4986 241.857 88.8844 241.899 89.26C241.899 90.0112 241.899 90.5797 241.949 90.9959C241.999 91.4121 241.949 91.6456 241.949 91.6456Z" fill="#263238"/>
<path d="M215.177 92.1836C216.651 91.4745 217.875 90.16 218.64 88.4668C219.405 86.7735 219.661 84.8076 219.366 82.9082C219.07 81.0087 218.24 79.2947 217.02 78.0618C215.8 76.8288 214.266 76.1541 212.682 76.1541C211.098 76.1541 209.563 76.8288 208.343 78.0618C207.123 79.2947 206.294 81.0087 205.998 82.9082C205.702 84.8076 205.959 86.7735 206.724 88.4668C207.488 90.16 208.713 91.4745 210.187 92.1836C199.732 93.9906 200.206 107.015 200.206 107.015L224.933 107.147C224.933 107.147 225.54 93.9804 215.177 92.1836Z" fill="#E0E0E0"/>
<path d="M159.812 266.965H156.244C155.972 266.965 155.712 266.833 155.52 266.599C155.328 266.365 155.221 266.047 155.221 265.716V261.361C155.221 261.03 155.328 260.712 155.52 260.478C155.712 260.244 155.972 260.112 156.244 260.112H159.812C160.082 260.115 160.341 260.247 160.533 260.481C160.724 260.714 160.832 261.03 160.835 261.361V265.685C160.837 265.852 160.812 266.017 160.762 266.171C160.711 266.325 160.637 266.466 160.541 266.585C160.446 266.704 160.333 266.799 160.208 266.864C160.082 266.929 159.948 266.963 159.812 266.965ZM156.244 260.61C156.083 260.61 155.928 260.688 155.814 260.827C155.701 260.966 155.637 261.154 155.637 261.351V265.685C155.637 265.882 155.701 266.07 155.814 266.209C155.928 266.348 156.083 266.426 156.244 266.426H159.812C159.891 266.426 159.97 266.407 160.044 266.37C160.118 266.333 160.185 266.278 160.241 266.209C160.297 266.141 160.342 266.059 160.373 265.969C160.403 265.879 160.419 265.783 160.419 265.685V261.33C160.419 261.233 160.403 261.137 160.373 261.047C160.342 260.957 160.297 260.875 160.241 260.806C160.185 260.738 160.118 260.683 160.044 260.646C159.97 260.608 159.891 260.589 159.812 260.589L156.244 260.61Z" fill="#263238"/>
<path d="M166.639 266.031L165.899 264.741H164.951V266.02H164.285V261.625H165.757C166.705 261.625 167.296 262.214 167.296 263.188C167.307 263.489 167.238 263.787 167.101 264.037C166.963 264.287 166.763 264.477 166.531 264.579L167.362 266.02L166.639 266.031ZM165.716 262.325H164.934V264.081H165.716C166.298 264.081 166.606 263.757 166.606 263.198C166.606 262.64 166.314 262.325 165.716 262.325Z" fill="#263238"/>
<path d="M170.547 264.609H168.393C168.435 264.853 168.549 265.069 168.713 265.217C168.877 265.365 169.08 265.434 169.283 265.411C169.421 265.418 169.558 265.388 169.685 265.325C169.813 265.262 169.928 265.167 170.023 265.046L170.373 265.523C170.222 265.76 170.024 265.947 169.798 266.066C169.572 266.185 169.324 266.233 169.079 266.204C168.834 266.176 168.599 266.072 168.395 265.903C168.191 265.735 168.026 265.506 167.914 265.238C167.802 264.97 167.747 264.672 167.755 264.372C167.762 264.072 167.831 263.778 167.956 263.519C168.081 263.26 168.258 263.044 168.469 262.89C168.681 262.736 168.921 262.65 169.167 262.64C169.354 262.631 169.541 262.67 169.715 262.755C169.889 262.839 170.046 262.967 170.177 263.131C170.308 263.295 170.41 263.49 170.475 263.704C170.54 263.919 170.568 264.148 170.556 264.376C170.556 264.437 170.547 264.528 170.547 264.609ZM168.385 264.081H169.949C169.89 263.885 169.784 263.716 169.644 263.596C169.504 263.477 169.338 263.413 169.167 263.413C168.996 263.413 168.829 263.477 168.689 263.596C168.55 263.716 168.443 263.885 168.385 264.081Z" fill="#263238"/>
<path d="M175.763 264.112V266.03H175.122V264.213C175.122 263.614 174.898 263.33 174.507 263.33C174.116 263.33 173.792 263.665 173.792 264.345V266.051H173.151V264.234C173.151 263.635 172.918 263.35 172.528 263.35C172.137 263.35 171.821 263.685 171.821 264.366V266.071H171.172V262.64H171.787V263.066C171.899 262.911 172.038 262.789 172.193 262.708C172.348 262.628 172.517 262.59 172.686 262.599C172.866 262.585 173.046 262.63 173.208 262.728C173.37 262.826 173.508 262.974 173.609 263.158C173.735 262.975 173.893 262.83 174.072 262.733C174.25 262.637 174.445 262.591 174.64 262.599C174.801 262.584 174.963 262.613 175.113 262.686C175.263 262.759 175.397 262.873 175.506 263.019C175.614 263.165 175.694 263.339 175.738 263.529C175.783 263.718 175.791 263.918 175.763 264.112Z" fill="#263238"/>
<path d="M179.182 264.609H177.028C177.07 264.853 177.184 265.069 177.348 265.217C177.512 265.365 177.715 265.434 177.918 265.411C178.056 265.417 178.194 265.387 178.323 265.324C178.452 265.261 178.569 265.166 178.666 265.046L179.007 265.523C178.869 265.71 178.697 265.857 178.506 265.952C178.314 266.046 178.107 266.087 177.901 266.071C177.707 266.091 177.512 266.061 177.329 265.984C177.145 265.906 176.976 265.783 176.834 265.621C176.691 265.46 176.578 265.264 176.501 265.046C176.424 264.828 176.386 264.593 176.387 264.356C176.382 264.127 176.414 263.9 176.483 263.688C176.552 263.476 176.657 263.284 176.789 263.123C176.922 262.962 177.08 262.836 177.254 262.753C177.428 262.67 177.614 262.631 177.801 262.64C177.988 262.631 178.175 262.67 178.349 262.755C178.523 262.839 178.681 262.967 178.812 263.131C178.943 263.295 179.044 263.49 179.109 263.704C179.174 263.919 179.202 264.148 179.19 264.376C179.191 264.454 179.188 264.532 179.182 264.609ZM177.019 264.081H178.583C178.562 263.85 178.47 263.637 178.324 263.486C178.179 263.335 177.992 263.258 177.801 263.269C177.612 263.262 177.427 263.342 177.282 263.492C177.138 263.642 177.044 263.852 177.019 264.081Z" fill="#263238"/>
<path d="M184.396 264.112V266.03H183.755V264.213C183.755 263.614 183.531 263.33 183.14 263.33C182.749 263.33 182.425 263.665 182.425 264.345V266.051H181.784V264.234C181.784 263.635 181.56 263.35 181.169 263.35C180.778 263.35 180.453 263.685 180.453 264.366V266.071H179.805V262.64H180.42V263.066C180.532 262.911 180.67 262.789 180.826 262.708C180.981 262.628 181.15 262.59 181.318 262.599C181.499 262.584 181.68 262.628 181.842 262.726C182.004 262.824 182.142 262.973 182.242 263.158C182.368 262.975 182.526 262.83 182.705 262.733C182.883 262.637 183.078 262.591 183.273 262.599C183.434 262.584 183.596 262.613 183.746 262.686C183.896 262.759 184.03 262.873 184.139 263.019C184.247 263.165 184.327 263.339 184.371 263.529C184.416 263.718 184.424 263.918 184.396 264.112Z" fill="#263238"/>
<path d="M188.171 264.356C188.181 264.583 188.151 264.81 188.084 265.023C188.018 265.236 187.915 265.429 187.784 265.591C187.652 265.752 187.494 265.878 187.32 265.961C187.146 266.044 186.96 266.081 186.774 266.071C186.603 266.082 186.432 266.045 186.275 265.962C186.118 265.879 185.978 265.753 185.867 265.594V266.031H185.252V261.371H185.901V263.087C186.006 262.945 186.134 262.832 186.278 262.755C186.421 262.678 186.576 262.639 186.732 262.64C186.922 262.621 187.114 262.651 187.293 262.73C187.473 262.809 187.636 262.934 187.773 263.097C187.909 263.259 188.015 263.456 188.084 263.673C188.153 263.89 188.183 264.123 188.171 264.356ZM187.514 264.356C187.514 264.086 187.427 263.828 187.271 263.638C187.115 263.447 186.903 263.34 186.682 263.34C186.455 263.34 186.237 263.451 186.077 263.647C185.916 263.843 185.826 264.109 185.826 264.386C185.826 264.663 185.916 264.929 186.077 265.125C186.237 265.321 186.455 265.432 186.682 265.432C186.793 265.426 186.902 265.394 187.002 265.337C187.103 265.28 187.193 265.199 187.267 265.099C187.342 264.998 187.399 264.881 187.436 264.753C187.472 264.626 187.488 264.491 187.481 264.356H187.514Z" fill="#263238"/>
<path d="M191.317 264.609H189.163C189.205 264.853 189.318 265.069 189.482 265.217C189.647 265.365 189.849 265.434 190.052 265.411C190.191 265.417 190.329 265.387 190.458 265.324C190.587 265.261 190.704 265.166 190.801 265.046L191.142 265.523C191.004 265.711 190.832 265.858 190.641 265.953C190.449 266.047 190.242 266.088 190.036 266.071C189.842 266.091 189.647 266.061 189.463 265.984C189.28 265.906 189.111 265.783 188.969 265.621C188.826 265.46 188.713 265.264 188.636 265.046C188.559 264.828 188.52 264.593 188.522 264.355C188.516 264.126 188.549 263.898 188.619 263.686C188.688 263.473 188.793 263.28 188.927 263.119C189.06 262.958 189.219 262.832 189.395 262.75C189.57 262.667 189.757 262.63 189.944 262.64C190.131 262.632 190.317 262.672 190.49 262.758C190.663 262.843 190.819 262.971 190.949 263.135C191.079 263.298 191.18 263.493 191.245 263.707C191.309 263.921 191.337 264.148 191.325 264.376C191.326 264.454 191.323 264.532 191.317 264.609ZM189.163 264.081H190.718C190.685 263.859 190.589 263.657 190.447 263.512C190.305 263.367 190.125 263.288 189.94 263.288C189.755 263.288 189.575 263.367 189.433 263.512C189.291 263.657 189.195 263.859 189.163 264.081Z" fill="#263238"/>
<path d="M193.536 262.64V263.391C193.486 263.382 193.436 263.382 193.386 263.391C193.274 263.375 193.16 263.39 193.053 263.435C192.946 263.48 192.849 263.555 192.768 263.652C192.688 263.75 192.628 263.869 192.59 263.999C192.553 264.13 192.541 264.269 192.554 264.406V266.03H191.914V262.64H192.521V263.127C192.64 262.943 192.796 262.802 192.975 262.716C193.153 262.63 193.347 262.604 193.536 262.64Z" fill="#263238"/>
<path d="M200.114 264.112V266.03H199.466V264.213C199.466 263.614 199.241 263.33 198.85 263.33C198.459 263.33 198.135 263.665 198.135 264.345V266.051H197.495V264.234C197.495 263.635 197.27 263.35 196.879 263.35C196.488 263.35 196.164 263.685 196.164 264.366V266.071H195.523V262.64H196.131V263.066C196.242 262.911 196.381 262.789 196.536 262.708C196.692 262.627 196.86 262.59 197.029 262.599C197.211 262.583 197.393 262.627 197.556 262.725C197.72 262.823 197.859 262.972 197.96 263.157C198.088 262.983 198.246 262.845 198.423 262.756C198.6 262.666 198.792 262.626 198.983 262.64C199.142 262.624 199.301 262.652 199.449 262.722C199.598 262.792 199.731 262.901 199.84 263.043C199.948 263.184 200.03 263.354 200.077 263.539C200.125 263.724 200.137 263.92 200.114 264.112Z" fill="#263238"/>
<path d="M203.534 264.609H201.38C201.422 264.853 201.535 265.069 201.699 265.217C201.864 265.365 202.066 265.434 202.27 265.411C202.407 265.418 202.544 265.388 202.672 265.325C202.799 265.262 202.915 265.167 203.01 265.046L203.359 265.523C203.22 265.71 203.049 265.857 202.857 265.952C202.666 266.046 202.459 266.087 202.253 266.071C202.058 266.092 201.863 266.064 201.678 265.987C201.493 265.91 201.324 265.787 201.18 265.625C201.037 265.464 200.923 265.267 200.845 265.049C200.768 264.83 200.729 264.594 200.731 264.356C200.726 264.127 200.76 263.9 200.83 263.688C200.9 263.475 201.005 263.283 201.138 263.122C201.271 262.962 201.43 262.836 201.605 262.753C201.779 262.67 201.966 262.632 202.153 262.64C202.34 262.632 202.526 262.673 202.7 262.758C202.873 262.843 203.03 262.971 203.161 263.135C203.291 263.298 203.393 263.493 203.458 263.706C203.524 263.92 203.553 264.148 203.542 264.376C203.542 264.437 203.534 264.528 203.534 264.609ZM201.371 264.081H202.927C202.908 263.851 202.817 263.638 202.673 263.487C202.529 263.336 202.343 263.258 202.153 263.269C201.963 263.26 201.777 263.338 201.632 263.489C201.487 263.639 201.394 263.851 201.371 264.081Z" fill="#263238"/>
<path d="M223.103 262.325V263.655H224.841V264.345H223.103V266.031H222.438V261.625H225.066V262.315L223.103 262.325Z" fill="#0E3995"/>
<path d="M225.323 264.355C225.312 263.999 225.388 263.646 225.542 263.343C225.696 263.04 225.921 262.8 226.187 262.654C226.454 262.508 226.751 262.463 227.038 262.525C227.326 262.586 227.593 262.751 227.803 262.999C228.013 263.247 228.158 263.566 228.218 263.915C228.279 264.264 228.252 264.627 228.142 264.958C228.032 265.288 227.843 265.571 227.6 265.769C227.357 265.968 227.071 266.073 226.779 266.071C226.589 266.084 226.4 266.048 226.222 265.967C226.044 265.887 225.881 265.762 225.745 265.601C225.608 265.44 225.5 265.246 225.428 265.032C225.355 264.817 225.32 264.587 225.323 264.355ZM227.594 264.355C227.594 264.155 227.545 263.958 227.454 263.791C227.362 263.625 227.232 263.494 227.081 263.418C226.929 263.341 226.761 263.321 226.6 263.36C226.439 263.399 226.29 263.496 226.174 263.638C226.058 263.78 225.979 263.961 225.947 264.157C225.914 264.354 225.931 264.558 225.994 264.744C226.057 264.929 226.163 265.088 226.3 265.2C226.437 265.311 226.598 265.371 226.762 265.371C226.983 265.371 227.194 265.264 227.35 265.073C227.506 264.883 227.594 264.625 227.594 264.355Z" fill="#0E3995"/>
<path d="M230.448 262.64V263.391H230.298C230.189 263.383 230.08 263.404 229.978 263.453C229.876 263.501 229.784 263.577 229.709 263.674C229.634 263.77 229.577 263.886 229.542 264.013C229.507 264.139 229.496 264.274 229.508 264.406V266.031H228.859V262.64H229.475V263.127C229.59 262.952 229.739 262.815 229.91 262.729C230.08 262.644 230.265 262.613 230.448 262.64Z" fill="#0E3995"/>
<path d="M233.691 262.64V265.482C233.719 265.726 233.699 265.973 233.633 266.206C233.568 266.438 233.459 266.648 233.315 266.82C233.171 266.992 232.997 267.12 232.805 267.194C232.613 267.269 232.41 267.287 232.211 267.249C231.737 267.272 231.269 267.105 230.88 266.772L231.163 266.183C231.456 266.451 231.812 266.593 232.178 266.589C232.785 266.589 233.009 266.244 233.009 265.574V265.391C232.891 265.542 232.747 265.66 232.588 265.737C232.428 265.814 232.257 265.848 232.086 265.838C231.903 265.855 231.719 265.827 231.546 265.753C231.372 265.68 231.213 265.564 231.078 265.411C230.943 265.259 230.836 265.075 230.762 264.87C230.688 264.664 230.65 264.443 230.65 264.218C230.65 263.994 230.688 263.773 230.762 263.567C230.836 263.362 230.943 263.178 231.078 263.025C231.213 262.873 231.372 262.757 231.546 262.684C231.719 262.61 231.903 262.582 232.086 262.599C232.265 262.587 232.445 262.625 232.61 262.709C232.776 262.793 232.924 262.922 233.043 263.087V262.64H233.691ZM233.059 264.213C233.059 263.944 232.972 263.686 232.816 263.496C232.66 263.305 232.448 263.198 232.228 263.198C232.007 263.198 231.795 263.305 231.64 263.496C231.484 263.686 231.396 263.944 231.396 264.213C231.396 264.483 231.484 264.741 231.64 264.931C231.795 265.122 232.007 265.229 232.228 265.229C232.448 265.229 232.66 265.122 232.816 264.931C232.972 264.741 233.059 264.483 233.059 264.213Z" fill="#0E3995"/>
<path d="M234.306 264.356C234.294 263.999 234.37 263.647 234.524 263.344C234.677 263.041 234.902 262.801 235.168 262.655C235.434 262.509 235.73 262.463 236.018 262.524C236.306 262.585 236.572 262.749 236.782 262.996C236.993 263.242 237.138 263.561 237.2 263.909C237.261 264.257 237.236 264.62 237.127 264.951C237.018 265.281 236.83 265.565 236.589 265.764C236.347 265.964 236.062 266.071 235.77 266.071C235.58 266.084 235.39 266.048 235.211 265.968C235.033 265.887 234.87 265.762 234.733 265.601C234.595 265.44 234.487 265.247 234.413 265.032C234.34 264.818 234.303 264.588 234.306 264.356ZM236.585 264.356C236.585 264.155 236.536 263.958 236.445 263.792C236.353 263.625 236.223 263.494 236.071 263.418C235.919 263.341 235.752 263.321 235.591 263.36C235.429 263.399 235.281 263.496 235.165 263.638C235.049 263.78 234.969 263.961 234.937 264.157C234.905 264.354 234.922 264.559 234.985 264.744C235.048 264.929 235.154 265.088 235.291 265.2C235.428 265.311 235.588 265.371 235.753 265.371C235.974 265.371 236.185 265.264 236.341 265.073C236.497 264.883 236.585 264.625 236.585 264.356Z" fill="#0E3995"/>
<path d="M239.505 265.848C239.323 266.003 239.104 266.081 238.882 266.071C238.756 266.092 238.627 266.078 238.506 266.029C238.386 265.981 238.276 265.899 238.185 265.79C238.094 265.681 238.025 265.548 237.983 265.401C237.941 265.255 237.927 265.098 237.942 264.944V263.33H237.484V262.701H237.942V261.939H238.582V262.701H239.314V263.33H238.582V264.924C238.582 265.249 238.715 265.432 238.965 265.432C239.094 265.433 239.219 265.383 239.322 265.289L239.505 265.848Z" fill="#0E3995"/>
<path d="M244.52 263.198C244.52 264.163 243.938 264.762 242.99 264.762H242.158V266.031H241.484V261.625H242.965C243.938 261.625 244.52 262.224 244.52 263.198ZM243.846 263.198C243.846 262.65 243.547 262.325 242.965 262.325H242.183V264.071H242.965C243.547 264.071 243.846 263.757 243.846 263.198Z" fill="#0E3995"/>
<path d="M247.405 264.061V266.03H246.798V265.624C246.699 265.775 246.571 265.893 246.427 265.971C246.282 266.049 246.124 266.083 245.966 266.071C245.334 266.071 244.943 265.655 244.943 265.056C244.943 264.457 245.251 264.041 246.083 264.041H246.79V263.99C246.79 263.533 246.565 263.269 246.108 263.269C245.809 263.265 245.517 263.379 245.276 263.594L245.027 263.026C245.365 262.739 245.771 262.593 246.183 262.609C246.948 262.64 247.405 263.097 247.405 264.061ZM246.756 264.985V264.589H246.099C245.659 264.589 245.542 264.792 245.542 265.036C245.542 265.279 245.733 265.503 246.066 265.503C246.211 265.516 246.356 265.473 246.48 265.38C246.604 265.287 246.701 265.149 246.756 264.985Z" fill="#0E3995"/>
<path d="M247.912 265.685L248.153 265.086C248.44 265.306 248.771 265.422 249.11 265.421C249.517 265.421 249.692 265.289 249.692 265.056C249.692 264.416 248.029 265.056 248.029 263.675C248.029 263.046 248.494 262.66 249.235 262.66C249.59 262.653 249.942 262.754 250.257 262.955L250.016 263.543C249.776 263.377 249.503 263.293 249.226 263.3C248.835 263.3 248.652 263.452 248.652 263.675C248.652 264.345 250.316 263.746 250.316 265.056C250.316 265.685 249.842 266.071 249.068 266.071C248.661 266.079 248.26 265.945 247.912 265.685Z" fill="#0E3995"/>
<path d="M250.549 265.685L250.798 265.086C251.084 265.307 251.416 265.424 251.755 265.421C252.154 265.421 252.329 265.289 252.329 265.056C252.329 264.416 250.665 265.056 250.665 263.675C250.665 263.046 251.131 262.66 251.871 262.66C252.23 262.654 252.584 262.755 252.903 262.955L252.653 263.543C252.412 263.377 252.139 263.293 251.863 263.3C251.48 263.3 251.289 263.452 251.289 263.675C251.289 264.345 252.952 263.746 252.952 265.056C252.952 265.685 252.478 266.071 251.713 266.071C251.303 266.078 250.9 265.944 250.549 265.685Z" fill="#0E3995"/>
<path d="M257.752 262.64L256.738 265.99H256.122L255.407 263.685L254.692 265.99H254.076L253.045 262.64H253.652L254.376 265.107L255.132 262.64H255.665L256.405 265.127L257.203 262.64H257.752Z" fill="#0E3995"/>
<path d="M257.884 264.356C257.872 263.999 257.948 263.647 258.102 263.344C258.255 263.041 258.48 262.801 258.746 262.655C259.012 262.509 259.308 262.463 259.596 262.524C259.884 262.585 260.15 262.749 260.36 262.996C260.571 263.242 260.716 263.561 260.778 263.909C260.839 264.257 260.814 264.62 260.705 264.951C260.596 265.281 260.409 265.565 260.167 265.764C259.925 265.964 259.64 266.071 259.348 266.071C259.157 266.085 258.967 266.051 258.788 265.971C258.609 265.89 258.446 265.766 258.308 265.605C258.171 265.443 258.062 265.249 257.989 265.034C257.916 264.819 257.88 264.588 257.884 264.356ZM260.163 264.356C260.163 264.155 260.114 263.958 260.023 263.792C259.931 263.625 259.801 263.494 259.649 263.418C259.497 263.341 259.33 263.321 259.169 263.36C259.008 263.399 258.859 263.496 258.743 263.638C258.627 263.78 258.547 263.961 258.515 264.157C258.483 264.354 258.5 264.559 258.563 264.744C258.626 264.929 258.732 265.088 258.869 265.2C259.006 265.311 259.167 265.371 259.331 265.371C259.552 265.371 259.763 265.264 259.919 265.073C260.075 264.883 260.163 264.625 260.163 264.356Z" fill="#0E3995"/>
<path d="M263.024 262.64V263.391H262.874C262.762 263.375 262.648 263.39 262.541 263.435C262.434 263.48 262.337 263.555 262.257 263.652C262.177 263.75 262.116 263.869 262.079 263.999C262.042 264.13 262.029 264.269 262.043 264.406V266.031H261.402V262.64H262.018V263.127C262.136 262.945 262.291 262.804 262.467 262.719C262.644 262.633 262.836 262.606 263.024 262.64Z" fill="#0E3995"/>
<path d="M266.227 261.371V266.031H265.611V265.594C265.499 265.753 265.358 265.879 265.199 265.962C265.041 266.045 264.869 266.082 264.697 266.071C264.324 266.071 263.966 265.89 263.703 265.569C263.439 265.247 263.291 264.811 263.291 264.356C263.291 263.901 263.439 263.464 263.703 263.142C263.966 262.821 264.324 262.64 264.697 262.64C264.862 262.629 265.028 262.665 265.181 262.744C265.333 262.823 265.469 262.944 265.578 263.097V261.371H266.227ZM265.595 264.356C265.595 264.155 265.546 263.959 265.455 263.792C265.363 263.625 265.233 263.494 265.081 263.418C264.929 263.341 264.762 263.321 264.601 263.36C264.44 263.399 264.291 263.496 264.175 263.638C264.059 263.78 263.979 263.961 263.947 264.157C263.915 264.354 263.932 264.559 263.995 264.744C264.058 264.93 264.164 265.088 264.301 265.2C264.438 265.311 264.599 265.371 264.763 265.371C264.984 265.371 265.195 265.264 265.351 265.073C265.507 264.883 265.595 264.625 265.595 264.356Z" fill="#0E3995"/>
<path d="M268.647 262.843C268.647 262.488 268.397 262.254 268.006 262.254C267.845 262.243 267.685 262.282 267.539 262.367C267.394 262.452 267.269 262.581 267.175 262.741L266.676 262.345C266.84 262.091 267.052 261.888 267.293 261.754C267.535 261.62 267.8 261.558 268.065 261.574C268.822 261.574 269.329 262 269.329 262.721C269.329 263.736 268.447 263.838 268.447 264.579H267.799C267.79 263.655 268.647 263.472 268.647 262.843ZM267.707 265.584C267.707 265.449 267.751 265.32 267.829 265.225C267.907 265.13 268.013 265.076 268.123 265.076C268.233 265.076 268.339 265.13 268.417 265.225C268.495 265.32 268.539 265.449 268.539 265.584C268.539 265.718 268.495 265.848 268.417 265.943C268.339 266.038 268.233 266.091 268.123 266.091C268.013 266.091 267.907 266.038 267.829 265.943C267.751 265.848 267.707 265.718 267.707 265.584Z" fill="#0E3995"/>
<path d="M157.757 264.975C157.683 264.975 157.612 264.943 157.557 264.883L156.726 264.071C156.669 264.001 156.637 263.906 156.637 263.807C156.637 263.708 156.669 263.614 156.726 263.543C156.751 263.503 156.782 263.47 156.818 263.445C156.854 263.42 156.894 263.404 156.935 263.398C156.976 263.393 157.018 263.397 157.058 263.412C157.098 263.426 157.134 263.45 157.166 263.482L157.748 264.071L159.137 262.234C159.166 262.198 159.2 262.169 159.238 262.15C159.276 262.13 159.317 262.12 159.358 262.12C159.399 262.12 159.44 262.13 159.477 262.15C159.515 262.169 159.55 262.198 159.578 262.234C159.636 262.306 159.668 262.402 159.668 262.503C159.668 262.603 159.636 262.7 159.578 262.772L157.99 264.883C157.958 264.918 157.921 264.944 157.881 264.959C157.841 264.975 157.799 264.98 157.757 264.975Z" fill="#263238"/>
<path d="M259.772 168.656C260.198 168.422 260.559 168.043 260.811 167.563C261.064 167.084 261.197 166.525 261.194 165.956C261.213 165.582 261.169 165.208 261.064 164.857C260.96 164.505 260.798 164.183 260.588 163.911C260.378 163.638 260.125 163.421 259.844 163.273C259.562 163.125 259.259 163.048 258.953 163.048C258.646 163.048 258.343 163.125 258.062 163.273C257.781 163.421 257.527 163.638 257.317 163.911C257.107 164.183 256.945 164.505 256.841 164.857C256.737 165.208 256.693 165.582 256.711 165.956C256.702 166.531 256.833 167.097 257.088 167.581C257.342 168.066 257.709 168.447 258.142 168.676C254.69 169.306 254.815 173.884 254.815 173.884L262.966 173.935C262.966 173.935 263.19 169.245 259.772 168.656Z" fill="#E0E0E0"/>
<path d="M197.479 136.973H199.391V143.378H202.618V145.226H197.479V136.973Z" fill="#263238"/>
<path d="M202.934 142.018C202.884 141.291 203.015 140.561 203.31 139.926C203.605 139.291 204.05 138.78 204.587 138.459C205.125 138.138 205.729 138.022 206.321 138.127C206.913 138.232 207.465 138.553 207.905 139.048C208.345 139.543 208.652 140.188 208.786 140.899C208.921 141.611 208.876 142.355 208.658 143.035C208.44 143.715 208.058 144.298 207.564 144.709C207.07 145.12 206.485 145.339 205.887 145.338C205.511 145.374 205.133 145.315 204.777 145.165C204.421 145.015 204.094 144.776 203.817 144.465C203.54 144.153 203.318 143.775 203.166 143.354C203.014 142.933 202.935 142.478 202.934 142.018ZM206.993 142.018C207.006 141.832 206.988 141.644 206.938 141.467C206.889 141.289 206.81 141.127 206.706 140.989C206.603 140.851 206.477 140.741 206.336 140.665C206.196 140.59 206.044 140.551 205.891 140.551C205.738 140.551 205.586 140.59 205.446 140.665C205.305 140.741 205.179 140.851 205.076 140.989C204.972 141.127 204.893 141.289 204.844 141.467C204.794 141.644 204.776 141.832 204.789 142.018C204.765 142.212 204.776 142.409 204.82 142.597C204.864 142.786 204.942 142.96 205.046 143.108C205.151 143.257 205.28 143.376 205.426 143.457C205.572 143.539 205.731 143.581 205.891 143.581C206.051 143.581 206.21 143.539 206.356 143.457C206.502 143.376 206.631 143.257 206.736 143.108C206.84 142.96 206.918 142.786 206.962 142.597C207.006 142.409 207.017 142.212 206.993 142.018Z" fill="#263238"/>
<path d="M215.328 138.841V144.059C215.328 146.475 214.205 147.622 212.259 147.622C211.343 147.663 210.437 147.374 209.656 146.789L210.321 145.216C210.839 145.662 211.459 145.899 212.093 145.896C213.074 145.896 213.49 145.358 213.49 144.353V144.14C213.293 144.4 213.051 144.603 212.782 144.734C212.513 144.866 212.224 144.923 211.935 144.901C211.264 144.901 210.621 144.576 210.147 143.997C209.673 143.419 209.406 142.634 209.406 141.815C209.406 140.997 209.673 140.212 210.147 139.633C210.621 139.054 211.264 138.729 211.935 138.729C212.251 138.696 212.569 138.761 212.86 138.917C213.15 139.073 213.404 139.315 213.598 139.622V138.841H215.328ZM213.515 141.835C213.515 141.464 213.394 141.108 213.179 140.845C212.963 140.582 212.671 140.435 212.367 140.435C212.063 140.435 211.771 140.582 211.556 140.845C211.34 141.108 211.219 141.464 211.219 141.835C211.219 142.207 211.34 142.563 211.556 142.826C211.771 143.089 212.063 143.236 212.367 143.236C212.671 143.236 212.963 143.089 213.179 142.826C213.394 142.563 213.515 142.207 213.515 141.835Z" fill="#263238"/>
<path d="M219.402 136.973H221.315V145.226H219.402V136.973Z" fill="#263238"/>
<path d="M228.161 141.571V145.226H226.323V141.937C226.323 141.023 225.998 140.627 225.491 140.627C224.984 140.627 224.451 141.084 224.451 142.14V145.185H222.613V138.8H224.36V139.49C224.578 139.226 224.838 139.018 225.124 138.88C225.41 138.742 225.716 138.677 226.023 138.688C226.328 138.669 226.632 138.733 226.914 138.875C227.196 139.017 227.449 139.234 227.653 139.51C227.858 139.786 228.01 140.114 228.097 140.471C228.185 140.827 228.207 141.203 228.161 141.571Z" fill="#263238"/>
<path d="M371.27 45.4759H357.522C357.262 45.4759 357.012 45.3496 356.828 45.125C356.644 44.9003 356.541 44.5957 356.541 44.2779V35.9333C356.541 35.6173 356.643 35.3142 356.825 35.0898C357.008 34.8655 357.255 34.7381 357.514 34.7354H371.27C371.303 34.7354 371.335 34.7435 371.365 34.7592C371.395 34.7749 371.422 34.7979 371.445 34.8268C371.469 34.8535 371.489 34.8864 371.502 34.9232C371.515 34.9601 371.521 34.9999 371.52 35.04V37.7911H372.992C373.058 37.7911 373.122 37.8231 373.168 37.8803C373.215 37.9374 373.241 38.0148 373.241 38.0956V42.1563C373.241 42.237 373.215 42.3145 373.168 42.3716C373.122 42.4287 373.058 42.4608 372.992 42.4608H371.52V45.2119C371.512 45.2855 371.482 45.3529 371.436 45.4015C371.39 45.4501 371.331 45.4765 371.27 45.4759ZM371.013 35.3242H357.514C357.451 35.3242 357.389 35.3395 357.331 35.3692C357.273 35.3989 357.22 35.4425 357.176 35.4973C357.132 35.5521 357.097 35.6171 357.074 35.6884C357.05 35.7598 357.039 35.8362 357.04 35.913V44.2577C357.04 44.335 357.053 44.4115 357.077 44.483C357.101 44.5544 357.137 44.6193 357.181 44.674C357.226 44.7287 357.279 44.772 357.338 44.8016C357.396 44.8312 357.459 44.8465 357.522 44.8465H371.013V42.0954C371.013 42.0545 371.019 42.014 371.032 41.9764C371.045 41.9388 371.064 41.9048 371.089 41.8763C371.113 41.8479 371.141 41.8257 371.172 41.811C371.204 41.7963 371.237 41.7894 371.27 41.7908H372.734V38.3798H371.27C371.237 38.3812 371.204 38.3743 371.172 38.3596C371.141 38.345 371.113 38.3227 371.089 38.2943C371.064 38.2659 371.045 38.2319 371.032 38.1942C371.019 38.1566 371.013 38.1162 371.013 38.0753V35.3242Z" fill="#263238"/>
<path d="M358.162 42.471V37.7404C358.162 37.4711 358.25 37.2129 358.406 37.0225C358.562 36.8321 358.773 36.7252 358.994 36.7252H365.456C365.677 36.7252 365.888 36.8321 366.044 37.0225C366.2 37.2129 366.288 37.4711 366.288 37.7404V42.471C366.288 42.7402 366.2 42.9985 366.044 43.1888C365.888 43.3792 365.677 43.4862 365.456 43.4862H359.002C358.892 43.4875 358.783 43.4622 358.681 43.4118C358.579 43.3614 358.487 43.2869 358.409 43.1925C358.33 43.0981 358.268 42.9857 358.226 42.8619C358.184 42.738 358.162 42.6052 358.162 42.471Z" fill="#263238"/>
<path d="M369.914 295.328H298.205V302.82H369.914V295.328Z" fill="#0E3995"/>
<path d="M365.756 295.328H364.533V302.82H365.756V295.328Z" fill="white"/>
<path d="M363.185 295.328H361.963V302.82H363.185V295.328Z" fill="white"/>
<path d="M306.074 295.328H304.852V302.82H306.074V295.328Z" fill="white"/>
<path d="M303.504 295.328H302.281V302.82H303.504V295.328Z" fill="white"/>
<path d="M355.344 301.135C355.344 301.135 355.427 301.135 355.585 301.135C355.812 301.074 356.019 300.928 356.176 300.719C356.293 300.569 356.382 300.388 356.433 300.191C356.48 299.944 356.48 299.687 356.433 299.44C356.401 299.147 356.29 298.875 356.117 298.668C355.922 298.435 355.666 298.291 355.394 298.262H345.522H312.769C312.482 298.264 312.207 298.402 312.001 298.646C311.795 298.89 311.674 299.221 311.663 299.572C311.649 299.806 311.677 300.042 311.746 300.262C311.82 300.469 311.935 300.65 312.08 300.79C312.225 300.93 312.396 301.024 312.578 301.064C312.772 301.079 312.966 301.079 313.16 301.064H341.787L327.066 301.216H313.185C312.986 301.236 312.786 301.236 312.586 301.216C312.383 301.18 312.19 301.081 312.027 300.929C311.864 300.776 311.736 300.574 311.655 300.343C311.577 300.108 311.543 299.855 311.555 299.602C311.566 299.217 311.698 298.852 311.925 298.583C312.151 298.314 312.454 298.163 312.769 298.16H345.522H355.452C355.734 298.194 355.998 298.344 356.201 298.587C356.372 298.807 356.483 299.088 356.517 299.389C356.547 299.644 356.53 299.904 356.467 300.15C356.414 300.353 356.323 300.537 356.201 300.688C356.039 300.899 355.826 301.041 355.593 301.094H355.41L355.344 301.135Z" fill="white"/>
<path d="M368.292 302.739H301.715V313.469H368.292V302.739Z" fill="#455A64"/>
<path d="M368.292 304.059H301.715V311.672H368.292V304.059Z" fill="#EBEBEB"/>
<path d="M367.719 304.261C367.719 304.261 353.04 304.333 334.95 304.333C316.861 304.333 302.182 304.333 302.182 304.261C302.182 304.19 316.853 304.201 334.95 304.201C353.048 304.201 367.719 304.261 367.719 304.261Z" fill="#263238"/>
<path d="M367.719 306.546C367.719 306.546 353.04 306.617 334.95 306.617C316.861 306.617 302.182 306.617 302.182 306.546C302.182 306.475 316.853 306.485 334.95 306.485C353.048 306.485 367.719 306.515 367.719 306.546Z" fill="#263238"/>
<path d="M367.719 308.82C367.719 308.82 353.04 308.891 334.95 308.891C316.861 308.891 302.182 308.891 302.182 308.82C302.182 308.749 316.853 308.759 334.95 308.759C353.048 308.759 367.719 308.779 367.719 308.82Z" fill="#263238"/>
<path d="M367.719 311.094C367.719 311.094 353.04 311.155 334.95 311.155C316.861 311.155 302.182 311.155 302.182 311.094C302.182 311.033 316.853 311.033 334.95 311.033C353.048 311.033 367.719 311.053 367.719 311.094Z" fill="#263238"/>
<path d="M304.884 294.414H314.008V273.309H304.884V294.414Z" fill="#FAFAFA"/>
<path d="M314.008 295.45H362.979V272.558H314.008V295.45Z" fill="#263238"/>
<path d="M304.16 295.45H315.18V293.968H304.16C303.999 293.968 303.844 294.046 303.731 294.185C303.617 294.324 303.553 294.512 303.553 294.709C303.553 294.905 303.617 295.094 303.731 295.233C303.844 295.372 303.999 295.45 304.16 295.45Z" fill="#263238"/>
<path d="M304.16 274.05H315.18V272.568H304.16C303.999 272.568 303.844 272.646 303.731 272.785C303.617 272.924 303.553 273.113 303.553 273.309C303.553 273.506 303.617 273.694 303.731 273.833C303.844 273.972 303.999 274.05 304.16 274.05Z" fill="#263238"/>
<path d="M304.875 276.142C304.875 276.142 306.921 276.202 309.441 276.202C311.961 276.202 314.007 276.202 314.007 276.142C314.007 276.081 311.961 276.071 309.441 276.071C306.921 276.071 304.875 276.101 304.875 276.142Z" fill="#E0E0E0"/>
<path d="M304.875 278.882C304.875 278.882 306.921 278.954 309.441 278.954C311.961 278.954 314.007 278.954 314.007 278.882C314.007 278.811 311.961 278.822 309.441 278.822C306.921 278.822 304.875 278.811 304.875 278.882Z" fill="#E0E0E0"/>
<path d="M304.875 281.552C304.875 281.552 306.921 281.613 309.441 281.613C311.961 281.613 314.007 281.613 314.007 281.552C314.007 281.492 311.961 281.492 309.441 281.492C306.921 281.492 304.875 281.522 304.875 281.552Z" fill="#E0E0E0"/>
<path d="M304.875 284.263C304.875 284.263 306.921 284.324 309.441 284.324C311.961 284.324 314.007 284.324 314.007 284.263C314.007 284.202 311.961 284.202 309.441 284.202C306.921 284.202 304.875 284.222 304.875 284.263Z" fill="#E0E0E0"/>
<path d="M304.875 287.004C304.875 287.004 306.921 287.065 309.441 287.065C311.961 287.065 314.007 287.065 314.007 287.004C314.007 286.943 311.961 286.933 309.441 286.933C306.921 286.933 304.875 286.933 304.875 287.004Z" fill="#E0E0E0"/>
<path d="M304.875 289.673C304.875 289.673 306.921 289.734 309.441 289.734C311.961 289.734 314.007 289.734 314.007 289.673C314.007 289.613 311.961 289.613 309.441 289.613C306.921 289.613 304.875 289.643 304.875 289.673Z" fill="#E0E0E0"/>
<path d="M304.875 292.384C304.875 292.384 306.921 292.445 309.441 292.445C311.961 292.445 314.007 292.445 314.007 292.384C314.007 292.323 311.961 292.323 309.441 292.323C306.921 292.323 304.875 292.344 304.875 292.384Z" fill="#E0E0E0"/>
<path d="M356.89 282.07H321.053V285.938H356.89V282.07Z" fill="white"/>
</svg>
