<svg width="20" height="21" viewBox="0 0 20 21" fill="none" xmlns="http://www.w3.org/2000/svg">
<path d="M2 4.5H0V18.5C0 19.61 0.9 20.5 2 20.5H16V18.5H2V4.5ZM16.5 12.75C16.5 11.25 13.5 10.5 12 10.5C10.5 10.5 7.5 11.25 7.5 12.75V13.5H16.5M12 8.75C13.24 8.75 14.25 7.74 14.25 6.5C14.25 5.26 13.24 4.25 12 4.25C10.76 4.25 9.75 5.26 9.75 6.5C9.75 7.74 10.76 8.75 12 8.75ZM18 0.5H6C4.9 0.5 4 1.4 4 2.5V14.5C4 15.61 4.9 16.5 6 16.5H18C19.11 16.5 20 15.61 20 14.5V2.5C20 1.39 19.1 0.5 18 0.5ZM18 14.5H6V2.5H18V14.5Z" fill="#6C99F8"/>
</svg>
