<svg width="20" height="21" viewBox="0 0 20 21" fill="none" xmlns="http://www.w3.org/2000/svg">
<path d="M9.99984 6.5C11.0607 6.5 12.0781 6.92143 12.8283 7.67157C13.5784 8.42172 13.9998 9.43913 13.9998 10.5C13.9998 11.5609 13.5784 12.5783 12.8283 13.3284C12.0781 14.0786 11.0607 14.5 9.99984 14.5C8.93897 14.5 7.92156 14.0786 7.17141 13.3284C6.42127 12.5783 5.99984 11.5609 5.99984 10.5C5.99984 9.43913 6.42127 8.42172 7.17141 7.67157C7.92156 6.92143 8.93897 6.5 9.99984 6.5ZM9.99984 8.5C9.46941 8.5 8.9607 8.71071 8.58563 9.08579C8.21055 9.46086 7.99984 9.96957 7.99984 10.5C7.99984 11.0304 8.21055 11.5391 8.58563 11.9142C8.9607 12.2893 9.46941 12.5 9.99984 12.5C10.5303 12.5 11.039 12.2893 11.4141 11.9142C11.7891 11.5391 11.9998 11.0304 11.9998 10.5C11.9998 9.96957 11.7891 9.46086 11.4141 9.08579C11.039 8.71071 10.5303 8.5 9.99984 8.5ZM7.99984 20.5C7.74984 20.5 7.53984 20.32 7.49984 20.08L7.12984 17.43C6.49984 17.18 5.95984 16.84 5.43984 16.44L2.94984 17.45C2.72984 17.53 2.45984 17.45 2.33984 17.23L0.339839 13.77C0.209839 13.55 0.26984 13.28 0.45984 13.13L2.56984 11.47L2.49984 10.5L2.56984 9.5L0.45984 7.87C0.26984 7.72 0.209839 7.45 0.339839 7.23L2.33984 3.77C2.45984 3.55 2.72984 3.46 2.94984 3.55L5.43984 4.55C5.95984 4.16 6.49984 3.82 7.12984 3.57L7.49984 0.92C7.53984 0.68 7.74984 0.5 7.99984 0.5H11.9998C12.2498 0.5 12.4598 0.68 12.4998 0.92L12.8698 3.57C13.4998 3.82 14.0398 4.16 14.5598 4.55L17.0498 3.55C17.2698 3.46 17.5398 3.55 17.6598 3.77L19.6598 7.23C19.7898 7.45 19.7298 7.72 19.5398 7.87L17.4298 9.5L17.4998 10.5L17.4298 11.5L19.5398 13.13C19.7298 13.28 19.7898 13.55 19.6598 13.77L17.6598 17.23C17.5398 17.45 17.2698 17.54 17.0498 17.45L14.5598 16.45C14.0398 16.84 13.4998 17.18 12.8698 17.43L12.4998 20.08C12.4598 20.32 12.2498 20.5 11.9998 20.5H7.99984ZM9.24984 2.5L8.87984 5.11C7.67984 5.36 6.61984 6 5.84984 6.89L3.43984 5.85L2.68984 7.15L4.79984 8.7C4.39984 9.87 4.39984 11.14 4.79984 12.3L2.67984 13.86L3.42984 15.16L5.85984 14.12C6.62984 15 7.67984 15.64 8.86984 15.88L9.23984 18.5H10.7598L11.1298 15.89C12.3198 15.64 13.3698 15 14.1398 14.12L16.5698 15.16L17.3198 13.86L15.1998 12.31C15.5998 11.14 15.5998 9.87 15.1998 8.7L17.3098 7.15L16.5598 5.85L14.1498 6.89C13.3798 6 12.3198 5.36 11.1198 5.12L10.7498 2.5H9.24984Z" fill="#6C99F8"/>
</svg>
