<svg width="26" height="25" viewBox="0 0 26 25" fill="none" xmlns="http://www.w3.org/2000/svg">
<path d="M21.5779 11.25H16.5779V16.25H14.0779V11.25H9.07788V8.75H14.0779V3.75H16.5779V8.75H21.5779M22.8279 0H7.82788C7.16484 0 6.52895 0.263392 6.06011 0.732233C5.59127 1.20107 5.32788 1.83696 5.32788 2.5V17.5C5.32788 18.163 5.59127 18.7989 6.06011 19.2678C6.52895 19.7366 7.16484 20 7.82788 20H22.8279C23.4909 20 24.1268 19.7366 24.5956 19.2678C25.0645 18.7989 25.3279 18.163 25.3279 17.5V2.5C25.3279 1.83696 25.0645 1.20107 24.5956 0.732233C24.1268 0.263392 23.4909 0 22.8279 0ZM2.82788 5H0.327881V22.5C0.327881 23.163 0.591273 23.7989 1.06011 24.2678C1.52895 24.7366 2.16484 25 2.82788 25H20.3279V22.5H2.82788V5Z" fill="white"/>
</svg>
