<svg width="13" height="11" viewBox="0 0 13 11" fill="none" xmlns="http://www.w3.org/2000/svg">
<path d="M12.1484 5.35156C12.1484 5.5651 12.0677 5.75 11.9062 5.90625L7.89844 9.90625C7.73698 10.0625 7.55729 10.1406 7.35938 10.1406C7.15104 10.1406 6.97656 10.0729 6.83594 9.9375C6.70052 9.79688 6.63281 9.625 6.63281 9.42188C6.63281 9.31771 6.65104 9.22135 6.6875 9.13281C6.72917 9.03906 6.78385 8.95833 6.85156 8.89062L7.99219 7.72656L10.4219 5.53125L10.6641 5.96094L8.44531 6.10156H1.32031C1.09115 6.10156 0.90625 6.03125 0.765625 5.89062C0.630208 5.75 0.5625 5.57031 0.5625 5.35156C0.5625 5.13281 0.630208 4.95312 0.765625 4.8125C0.90625 4.67188 1.09115 4.60156 1.32031 4.60156H8.44531L10.6641 4.74219L10.4219 5.17969L7.99219 2.97656L6.85156 1.8125C6.78385 1.74479 6.72917 1.66667 6.6875 1.57812C6.65104 1.48438 6.63281 1.38542 6.63281 1.28125C6.63281 1.07292 6.70052 0.901042 6.83594 0.765625C6.97656 0.630208 7.15104 0.5625 7.35938 0.5625C7.55729 0.5625 7.73698 0.640625 7.89844 0.796875L11.9062 4.79688C12.0677 4.95312 12.1484 5.13802 12.1484 5.35156Z" fill="black"/>
</svg>
